# xmcd
# Copyright (C) 1995-1998 Ti Kan
#
# Track frame offsets:
#       150
#       16023
#       31855
#       48835
#       66955
#       84822
#       101586
#       118417
#       143785
#       159714
#       178531
#       195457
#
# Disc length: 3021 seconds
#
# Revision: 0
# Processed by: cddbd v1.4PL0 Copyright (c) Steve Scherf et al.
# Submitted via: CD-Transfer v1.0
#
DISCID=930bcb0c
DTITLE=Shakra - Raising
DYEAR=2003
DGENRE=
TTITLE0=Now Or Never
TTITLE1=Done Wrong
TTITLE2=Too Good For Me
TTITLE3=I Will Be There
TTITLE4=Rising High
TTITLE5=Little Stories
TTITLE6=My Life - My World
TTITLE7=Sign In The Sky
TTITLE8=Run Away
TTITLE9=Fight The Fire
TTITLE10=Anything
TTITLE11=Trapped
EXTD=
EXTT0=
EXTT1=
EXTT2=
EXTT3=
EXTT4=
EXTT5=
EXTT6=
EXTT7=
EXTT8=
EXTT9=
EXTT10=
EXTT11=
PLAYORDER=
